<svg version="1.1" id="Layer_1" xmlns="http://www.w3.org/2000/svg" xmlns:xlink="http://www.w3.org/1999/xlink" x="0px" y="0px"
	 width="100%" viewBox="0 0 407 75" enable-background="new 0 0 407 75" xml:space="preserve">
<path fill="#000000" opacity="1.000000" stroke="none" 
	d="
M1.309708,52.217758 
	C1.000000,36.537762 1.216310,21.070549 0.861082,5.616475 
	C0.761491,1.283780 2.077087,0.888738 5.863941,0.903047 
	C46.929722,1.058209 87.996315,1.000000 129.531342,1.000000 
	C130.134521,1.199205 130.269058,1.398410 130.367554,1.956634 
	C127.707970,5.276199 126.915237,9.633939 122.808014,11.781174 
	C120.679420,11.505322 118.909279,11.568192 116.816666,12.045503 
	C116.256676,12.016128 116.034821,11.982301 115.498711,11.838312 
	C114.706581,11.787665 114.506866,10.509472 113.557709,11.629459 
	C112.599648,12.064303 111.902512,12.126443 110.829910,12.069271 
	C107.860107,11.235929 105.177299,11.500960 102.163353,11.475193 
	C101.489487,11.500922 101.157196,11.458363 100.847908,11.521217 
	C99.356316,11.824351 97.220726,10.067607 96.470261,11.932419 
	C95.673370,13.912578 97.321800,15.499890 99.433823,16.656431 
	C102.120743,17.878481 104.574486,17.681099 107.383911,17.154572 
	C111.216698,17.098082 114.568970,15.922628 118.041367,15.832900 
	C120.829269,15.760859 123.713417,16.330515 124.394012,19.387770 
	C125.138824,22.733477 122.198524,23.769253 119.723038,24.782785 
	C118.649918,25.222153 117.490784,25.362848 116.359528,25.604788 
	C112.465004,26.437700 113.888069,27.732023 116.416962,29.161110 
	C118.081078,29.661777 119.448624,29.532629 121.146393,29.386726 
	C127.397789,27.191563 129.439850,24.135263 128.930954,18.107428 
	C128.861145,17.280481 128.675522,16.458273 128.722504,15.626698 
	C128.881378,12.814013 129.624207,10.129842 132.653000,9.358812 
	C135.879425,8.537472 137.417389,10.950432 138.670944,13.427001 
	C138.970856,14.019506 139.140472,14.670254 139.382416,15.289188 
	C140.486664,18.114031 141.969315,17.958637 143.841095,15.530443 
	C144.731506,13.770809 144.645828,12.309664 143.833466,10.542390 
	C143.126480,6.662728 138.448120,5.520733 138.779922,1.273404 
	C147.020905,1.000000 155.041809,1.000000 163.531357,1.000000 
	C165.486084,2.734206 164.292282,4.481672 163.998764,6.208191 
	C163.098419,11.504055 164.711655,13.659800 170.146545,14.036891 
	C175.659592,14.419407 181.075134,13.239143 186.533325,12.763182 
	C192.195694,12.269416 195.475082,13.686513 195.832581,17.035534 
	C196.170883,20.204908 193.582611,22.001968 187.957458,22.804592 
	C185.236969,23.192766 182.686020,22.907799 180.117722,22.019140 
	C178.770279,21.552912 177.374649,21.628193 176.875702,23.325756 
	C176.325821,25.196703 177.477249,26.130524 179.057281,26.607729 
	C181.341583,27.297632 183.667587,27.126514 185.974167,26.686977 
	C187.790558,26.340851 189.596497,26.160179 191.407501,26.681812 
	C195.718033,27.923399 196.621155,30.740944 193.845963,34.506210 
	C192.757706,35.982712 191.548996,37.375126 191.076157,39.194263 
	C190.400848,41.792286 190.819214,43.989731 192.921249,45.974354 
	C196.662872,49.507027 196.440430,50.087677 190.950897,51.858017 
	C187.847885,51.293610 185.076691,51.506153 181.952942,51.469364 
	C179.864700,51.404564 178.062164,51.196514 177.662735,49.182812 
	C177.357224,47.642609 178.789581,46.901161 179.913300,46.204407 
	C183.012985,44.282490 185.164185,41.949005 183.374451,38.018887 
	C181.799561,34.560535 177.711761,32.933510 173.590332,34.060703 
	C171.640076,34.594093 169.911697,35.584900 168.132706,37.117538 
	C167.329773,37.929287 166.636368,38.414356 166.258331,39.522045 
	C166.102051,40.003899 166.040604,40.197441 165.888916,40.681702 
	C165.288208,42.194324 165.485703,43.368832 166.167419,44.821644 
	C168.539688,53.321781 174.409531,56.959709 182.744125,57.968941 
	C184.643631,58.397633 186.209824,58.673092 188.161438,58.444427 
	C196.743408,57.728130 203.774551,55.224144 206.775604,46.096119 
	C207.401062,44.670288 207.632202,43.465298 208.496796,42.146397 
	C208.979263,41.796261 209.210831,41.716854 209.800415,41.713394 
	C210.843353,42.301598 211.342117,42.978615 211.600540,43.771538 
	C214.588440,52.939388 221.816376,55.750683 230.487228,56.385063 
	C239.558151,57.048721 246.123337,53.106483 250.661591,45.402630 
	C251.614685,43.784740 251.900116,41.419151 254.916199,41.655159 
	C255.802475,42.341206 256.109283,43.012550 256.399109,44.097820 
	C256.495178,44.700386 256.512817,44.941673 256.568512,45.539001 
	C256.443939,52.242558 259.564087,56.066311 265.956970,57.716484 
	C268.469025,58.637348 270.672729,58.873856 273.239807,57.934410 
	C284.554626,56.454006 292.171478,44.012688 287.167358,33.225967 
	C286.858978,30.275534 288.084778,29.212660 290.980652,29.571243 
	C291.576477,29.629435 291.812805,29.657820 292.395630,29.756603 
	C293.192230,29.946499 293.639008,30.077244 294.408081,30.326229 
	C296.099335,30.666649 297.509430,30.525568 299.186462,31.058100 
	C299.713287,31.331715 299.908600,31.471363 300.306396,31.908943 
	C300.568970,32.438507 300.629028,32.670143 300.679688,33.259510 
	C299.274384,37.448380 295.590576,39.670643 293.958221,43.410267 
	C291.131104,49.887043 292.290070,53.884945 298.814941,57.637436 
	C300.458038,58.126244 301.746246,59.016357 303.376465,57.871567 
	C304.062683,55.899372 302.957611,54.446301 302.725281,52.841297 
	C302.272156,49.711254 302.055939,46.549580 303.221558,43.568359 
	C304.797882,39.536758 306.661560,34.941353 311.444397,34.600105 
	C316.380463,34.247936 318.480438,38.660820 320.301514,43.064888 
	C320.541809,46.069790 320.439911,48.695007 320.488464,51.685757 
	C320.755310,53.648987 320.288177,55.233093 320.518646,57.118034 
	C321.275726,58.568043 322.254333,58.420708 323.600342,57.955261 
	C326.992554,56.995872 329.581604,55.555294 330.756470,51.960869 
	C331.373627,50.369102 331.628693,49.047619 331.664551,47.331451 
	C332.528656,43.886570 334.771240,44.672138 336.916168,45.033531 
	C342.531250,45.979603 347.130737,44.639309 349.937134,38.841976 
	C350.648865,37.397087 350.571960,36.158310 350.544434,34.633694 
	C350.509796,34.146275 350.489471,33.953487 350.383179,33.485111 
	C350.240265,33.027103 350.183319,32.844692 350.033936,32.393021 
	C349.807220,31.770264 349.663940,31.420467 349.372375,30.824558 
	C349.134552,30.409912 349.037018,30.244633 348.797089,29.828594 
	C348.398163,29.054575 348.053345,28.595613 347.439087,27.973301 
	C346.837494,27.334286 346.455322,26.891052 345.798828,26.306700 
	C345.262665,25.877325 344.945892,25.644558 344.356567,25.273911 
	C343.909210,25.029236 343.727203,24.932148 343.268799,24.686642 
	C342.041138,24.022200 341.091858,23.502356 339.792877,22.904732 
	C335.781647,22.384150 332.092773,22.039043 328.063477,23.191040 
	C326.069824,23.510689 324.445892,23.442768 322.416138,23.477896 
	C320.376678,23.481281 318.746765,23.472181 316.721985,23.479965 
	C313.026764,23.484907 309.726288,23.431995 306.081635,23.537441 
	C305.519348,23.608221 305.301575,23.647331 304.765015,23.724808 
	C303.849396,23.751753 303.265320,23.611200 302.399719,23.602365 
	C301.953033,23.619751 301.776306,23.621994 301.341461,23.606937 
	C300.745178,23.564243 300.407562,23.570129 299.820099,23.662689 
	C299.227173,23.766926 298.883636,23.775085 298.287415,23.683620 
	C297.882202,23.551758 297.728699,23.479271 297.169312,23.138180 
	C296.763397,22.869577 296.326508,22.690664 296.086731,22.663826 
	C295.846954,22.636990 295.352478,22.609098 295.103516,22.569626 
	C294.524628,22.440092 294.201935,22.329039 293.646210,22.093628 
	C293.251801,21.906681 293.097260,21.824009 292.724548,21.594769 
	C292.375793,21.334305 292.245209,21.220406 291.836060,20.701534 
	C291.557526,20.296564 291.506866,19.866310 291.506866,19.866310 
	C291.506866,19.866310 291.309784,20.269857 291.148315,20.459629 
	C290.860718,20.759588 290.734558,20.869776 290.408844,21.131493 
	C289.906464,21.439049 289.664093,21.661089 289.372925,22.179964 
	C289.192169,22.567869 289.120636,22.724951 288.952209,23.124502 
	C288.739105,23.705462 288.636475,24.048044 288.496887,24.673405 
	C288.379852,25.338173 288.298431,25.721014 288.121643,26.399426 
	C287.485504,28.135193 286.446472,28.600224 284.688354,28.130442 
	C284.017761,27.865082 283.660675,27.668631 283.076233,27.279558 
	C282.520752,26.897192 282.207550,26.679848 281.647552,26.332432 
	C281.235748,26.118387 281.069000,26.036940 280.647156,25.844227 
	C280.041565,25.594154 279.689331,25.460129 279.056335,25.243923 
	C277.826202,24.841995 276.899384,24.457184 275.635651,24.081451 
	C273.888092,23.438686 272.445831,23.188967 270.730225,24.197699 
	C267.334442,27.455019 264.284302,30.601063 260.992584,33.502708 
	C259.652252,34.684193 258.532990,36.141171 256.244690,36.354736 
	C254.761902,35.717762 254.153259,34.645660 253.257599,33.365025 
	C252.170013,30.750261 251.713547,28.241852 250.040909,26.286198 
	C248.208694,24.143993 246.005997,23.323856 243.431320,24.820303 
	C240.583130,26.475719 242.303345,28.432894 243.211212,30.340115 
	C247.447830,39.240425 244.883743,45.891117 234.864120,51.226810 
	C232.674149,51.527199 230.839417,51.440777 228.599823,51.457203 
	C223.221237,50.760078 220.330063,47.749435 218.814056,42.706566 
	C218.544830,40.692627 218.499969,39.080696 218.939743,37.104298 
	C219.232132,36.521816 219.384109,36.309383 219.863327,35.894691 
	C220.441605,35.703022 220.692612,35.713608 221.239227,35.949020 
	C224.031158,42.070263 225.816193,43.259804 229.348740,41.310036 
	C231.317978,40.223125 232.558884,38.527325 233.213684,36.023735 
	C233.640564,34.173943 233.704163,32.664875 232.961578,30.886902 
	C231.880280,28.306408 230.301331,26.603474 227.821167,25.329075 
	C225.932556,24.357262 224.303619,24.239061 222.321411,25.072327 
	C216.047882,26.273560 213.800568,31.026566 211.399948,36.089523 
	C210.581604,37.326508 210.099960,38.398609 208.800629,39.196510 
	C207.734634,39.274704 207.209366,38.837318 206.460342,38.128426 
	C205.907364,37.562344 205.600525,37.229626 205.055954,36.650070 
	C203.868896,35.378567 202.915024,34.356926 202.081604,32.799744 
	C201.391571,30.872095 201.691025,29.181473 201.311295,27.222858 
	C199.602600,23.821012 199.048340,21.159342 201.523697,17.840227 
	C204.830780,13.405929 203.066330,10.557993 195.666077,7.321959 
	C192.807877,6.192179 190.260162,6.201957 187.332520,7.158533 
	C184.400208,7.855130 181.802185,7.978032 178.779922,7.669361 
	C176.155045,7.365437 173.925354,7.499370 171.258911,7.527662 
	C167.561859,6.989649 164.842056,5.925967 165.748825,1.381503 
	C245.206970,1.000000 324.414001,1.038221 403.620697,0.888160 
	C407.619354,0.880584 408.190094,2.061002 408.088043,5.609107 
	C407.824982,14.753577 408.000000,23.910646 408.000000,33.531342 
	C407.635468,34.330990 407.211914,34.527657 406.369995,34.483925 
	C402.844086,29.967970 400.014374,25.157574 393.961426,23.352081 
	C392.199646,22.578110 390.704010,22.275845 388.798035,22.673283 
	C386.387146,23.300966 384.210663,23.795954 382.632446,25.310097 
	C379.112274,28.687344 375.858459,28.083321 371.997070,25.628511 
	C364.983887,21.170000 359.939484,22.386869 355.532104,29.272385 
	C354.284882,31.568796 354.032867,33.608353 355.254150,35.997101 
	C359.004761,40.031216 357.441071,43.432400 354.558838,47.052425 
	C353.731354,48.490200 353.196716,49.658524 353.758423,51.313568 
	C353.994720,51.779652 354.096527,51.961735 354.371552,52.404816 
	C354.672791,52.832073 354.800873,52.998341 355.134918,53.404831 
	C356.880920,55.474514 358.721527,56.884064 361.303314,57.792046 
	C363.259094,58.658421 364.994751,58.621750 367.062439,58.371773 
	C368.493256,57.959538 369.622253,57.686928 370.655701,57.147171 
	C375.414307,54.661846 375.880829,51.865768 372.179016,47.844276 
	C371.286743,46.874985 370.428375,45.856949 369.057129,44.875481 
	C368.680298,44.427834 368.552429,44.229683 368.305725,43.697815 
	C368.113586,40.779133 368.632080,38.074646 364.690216,37.508759 
	C362.835754,37.242535 362.652527,35.077091 362.975739,33.354557 
	C363.352417,31.346972 364.679016,30.144802 366.686432,29.861391 
	C369.842590,29.415800 372.132751,30.825867 373.760559,33.442959 
	C375.193634,35.746906 376.863190,37.414070 380.094849,35.733337 
	C381.511719,34.629425 381.656494,33.215122 382.337921,31.652842 
	C388.536713,26.013338 394.906372,27.902391 399.203522,36.623497 
	C399.494385,38.556320 399.442322,40.111809 399.445801,42.035458 
	C399.160950,46.286560 397.025574,48.878769 393.602783,50.403122 
	C391.223206,51.462879 388.784668,51.187817 387.587616,48.693951 
	C386.304077,46.019829 388.072571,44.357491 390.387695,43.243156 
	C391.960693,42.486023 395.098358,42.842945 393.503082,39.660625 
	C392.284454,37.229671 389.909821,36.839947 387.472351,37.834385 
	C384.027863,39.239674 381.985657,42.005375 380.494324,45.654858 
	C379.741852,47.304329 379.150604,48.649036 380.201843,50.394859 
	C381.693390,54.111179 383.786987,56.766621 387.894043,57.759899 
	C389.672516,58.419884 391.171021,58.696945 393.064301,58.375320 
	C399.701294,57.033649 403.309692,52.836349 405.801880,46.895725 
	C406.511932,46.478306 406.974304,46.454235 407.722626,46.779037 
	C408.000000,55.488144 407.857727,63.980000 408.078979,72.462372 
	C408.154053,75.339462 407.639282,76.105988 404.544983,76.093346 
	C368.762207,75.947159 332.978638,76.000000 297.195282,76.000000 
	C239.442627,76.000000 181.689972,76.000000 123.468658,76.000000 
	C122.633644,75.627449 122.446289,75.179420 122.526382,74.288864 
	C123.045761,73.251534 123.660469,72.811638 124.731979,72.364967 
	C125.348259,72.212166 125.600166,72.178688 126.230705,72.153374 
	C129.278229,72.768051 131.987930,72.476387 135.043488,72.522141 
	C137.059921,72.472366 138.711365,71.994591 140.712006,72.494019 
	C142.813019,72.546761 144.572845,72.610489 146.637985,72.406219 
	C147.146088,72.296562 147.347412,72.254417 147.850327,72.184677 
	C148.543671,72.147705 148.935440,72.139648 149.605896,72.093918 
	C150.256378,71.971405 150.600403,71.821678 151.170166,71.450340 
	C151.588715,71.166138 151.759460,71.050987 152.202087,70.777328 
	C154.023117,69.738983 155.246368,68.525345 156.277679,66.698776 
	C156.571030,65.317390 156.635376,64.246910 156.208771,62.889732 
	C156.007614,62.402641 155.929062,62.208130 155.726959,61.728035 
	C155.335815,60.880531 155.023849,60.347736 154.343811,59.679905 
	C152.451462,58.064423 150.683182,56.835972 148.479767,56.598003 
	C145.448776,56.270664 143.024063,56.986500 141.874664,60.299660 
	C139.433762,67.335571 138.322098,67.905113 131.214645,66.304199 
	C130.252701,66.087524 129.286743,65.902420 127.959076,65.712234 
	C125.456940,65.397141 123.312553,65.211372 120.914383,66.232132 
	C115.785866,67.668633 117.443588,72.593498 115.236313,75.739273 
	C78.298660,76.000000 41.596977,75.930504 4.896509,76.109451 
	C1.298540,76.126991 0.552993,75.166054 0.937218,71.917221 
	C1.247125,69.296768 1.000000,66.610428 1.000000,63.476662 
	C1.539668,62.493599 2.126478,62.067551 3.227361,61.864677 
	C3.824792,61.837875 4.062361,61.850731 4.646197,61.928211 
	C6.886775,62.926018 8.874680,62.817585 11.195024,62.430191 
	C15.043437,61.318306 12.118665,59.626682 11.836540,57.880787 
	C11.550778,56.325974 11.584176,55.112995 11.866142,53.546577 
	C13.858509,49.101921 16.420979,50.224617 19.080353,52.299686 
	C22.799166,55.201439 26.694885,57.569469 32.049522,56.601822 
	C32.587547,56.471565 32.799648,56.418716 33.321327,56.281582 
	C33.831528,56.135170 34.032143,56.073036 34.525517,55.906536 
	C35.843773,55.539639 36.637512,54.932449 37.506844,53.891552 
	C40.297451,51.543125 40.453579,47.672184 43.710068,45.924126 
	C46.043037,47.653236 44.711651,50.293251 46.072327,52.456688 
	C50.226063,57.266468 53.241306,58.136372 58.465347,55.469570 
	C61.446934,53.947514 64.048630,53.695850 66.891701,55.397266 
	C70.756737,57.710262 74.518608,57.078861 78.194305,54.894482 
	C79.921722,53.867916 81.664894,52.629940 83.700447,54.055176 
	C88.833809,57.649406 93.621567,56.982456 98.228256,53.066235 
	C98.599014,52.751049 99.144730,52.703693 99.978539,52.817810 
	C101.453873,53.981312 101.279396,55.581066 102.133698,57.114182 
	C103.402069,59.804218 105.014023,61.609444 107.773079,61.967579 
	C111.289871,62.424068 112.432083,61.105492 111.385956,57.721802 
	C110.880508,56.086926 110.674149,54.491852 111.140518,52.837990 
	C112.140327,49.292408 114.016647,48.638817 116.812225,51.057270 
	C119.081535,53.020443 121.280647,55.023369 124.516708,56.102432 
	C126.415100,56.704746 128.029099,56.511108 129.972672,56.454247 
	C136.983841,55.011063 140.543579,50.643227 142.017441,43.885284 
	C142.621765,41.750572 142.599136,39.916973 142.393890,37.743065 
	C141.651871,34.475899 140.620468,31.690903 138.407318,29.573521 
	C136.894791,28.126448 135.065262,27.303082 133.093765,28.807680 
	C130.901443,30.480822 131.969696,32.086559 133.148132,33.890072 
	C137.628677,40.747242 137.184586,43.951942 131.065170,48.145203 
	C129.261795,48.509167 127.790802,48.437378 125.960159,48.384750 
	C121.739914,47.617405 119.025719,45.117661 116.879547,42.122677 
	C114.806297,39.229465 113.053894,39.638748 110.870674,41.823498 
	C108.752480,43.943157 106.616226,46.023853 104.835327,48.457130 
	C103.873596,49.771149 102.834091,51.346741 100.618782,49.637184 
	C100.385956,49.127045 100.333374,48.908096 100.283478,48.355316 
	C100.457214,46.761433 101.216103,45.631104 101.101135,43.990410 
	C101.106949,43.458687 101.117104,43.245438 101.170456,42.714420 
	C101.671616,40.938313 101.543282,39.437096 101.525940,37.619091 
	C101.429390,35.742123 100.681503,34.335384 100.443939,32.498650 
	C100.273087,32.010788 100.194519,31.822020 100.010651,31.351341 
	C99.772003,30.702549 99.637428,30.336119 99.378632,29.714428 
	C99.167488,29.292307 99.079239,29.125933 98.847603,28.717592 
	C98.500336,28.156881 98.280670,27.849348 97.847961,27.338890 
	C96.960869,26.401613 96.239616,25.715340 95.139328,24.988686 
	C92.076408,22.743719 90.145630,24.551987 88.029053,26.521511 
	C87.645180,26.993692 87.474716,27.274559 87.349716,27.798510 
	C87.355553,28.017712 87.577042,28.421858 87.779236,28.564709 
	C88.473099,28.977301 88.970284,29.237076 89.717026,29.711628 
	C92.174721,32.261021 94.259903,34.691719 95.193962,38.237083 
	C95.408112,39.868767 95.140488,41.204109 95.704208,42.797321 
	C95.918304,43.568680 95.973534,44.025478 95.946281,44.843643 
	C95.833511,45.428814 95.758972,45.658325 95.497681,46.201431 
	C93.526428,48.285599 91.525444,49.636162 88.548508,49.762093 
	C87.190712,49.435345 86.426949,48.806576 85.450653,47.851101 
	C84.606712,46.792816 84.262398,45.904285 84.112015,44.586571 
	C84.236420,42.753036 84.846024,41.266106 84.019470,39.468941 
	C83.494064,37.514973 82.767776,36.017258 81.466461,34.450325 
	C79.943138,31.006138 77.763962,28.682262 74.170563,27.335209 
	C73.430099,27.010235 73.008850,26.810196 72.269623,26.434101 
	C71.526321,26.006868 71.152115,25.690231 70.647705,24.990988 
	C71.877113,18.708530 77.236519,17.945715 82.069260,15.943857 
	C83.613579,15.429187 85.038345,15.947636 86.242645,14.694295 
	C84.879036,8.199372 82.393242,7.032709 77.042511,10.210815 
	C73.206894,12.489015 70.277710,15.907064 66.594025,18.941792 
	C66.199226,19.381769 66.037758,19.556091 65.608414,19.967571 
	C63.332790,21.496725 61.840237,23.546757 59.062626,24.305416 
	C57.505043,24.461073 56.301975,24.439404 54.747131,24.422123 
	C53.910862,24.375769 53.444664,24.216152 52.969215,24.159203 
	C51.396393,23.970808 49.653824,21.634275 48.305046,24.007286 
	C47.192856,25.964056 47.496422,28.088139 50.084633,29.499346 
	C50.636215,29.637630 50.858524,29.691639 51.404366,29.862600 
	C53.719353,30.872026 55.830482,30.442230 58.247055,30.532345 
	C59.075298,30.521915 59.550430,30.510775 60.385460,30.453388 
	C68.444847,29.422878 74.295059,32.104507 78.089882,39.453438 
	C78.302193,40.314800 78.360641,40.819386 78.390633,41.713409 
	C78.451469,43.699402 77.973450,45.168667 77.082893,46.925747 
	C76.576469,47.698662 76.224243,48.091053 75.515488,48.689163 
	C73.563591,49.921494 71.817902,50.411999 69.517197,49.977196 
	C68.156845,49.509701 67.445992,48.777786 66.488770,47.793690 
	C64.079742,44.840069 65.473236,40.235298 61.134552,38.435234 
	C59.482128,37.622036 58.100536,37.232231 56.313522,38.058773 
	C51.636402,39.268032 48.136833,41.532078 45.726479,45.850368 
	C45.240631,46.170513 45.020752,46.257664 44.459641,46.246956 
	C43.540821,45.744217 42.904613,45.403423 42.470367,44.394848 
	C42.391872,42.250576 42.859753,40.413963 41.878311,38.344620 
	C40.006126,32.631287 36.164753,29.386843 31.156271,27.020857 
	C27.002361,25.058569 26.954058,23.992754 30.119665,20.392767 
	C31.651661,19.605146 33.083141,19.416618 34.417408,18.232220 
	C35.914207,17.352974 37.177170,16.781342 38.765942,16.106327 
	C40.659111,15.186128 43.081696,16.409109 43.937679,13.630548 
	C40.834202,6.865225 37.234436,6.154220 32.313194,11.243862 
	C28.873222,14.801548 25.069307,17.973114 21.696068,21.598717 
	C20.320396,23.077307 18.354988,23.669456 16.081533,24.269787 
	C14.541451,24.454151 13.345703,24.437288 11.792911,24.423380 
	C10.945476,24.381992 10.473063,24.231955 9.991645,24.169891 
	C8.402259,23.964991 6.684200,21.677740 5.260699,24.039736 
	C4.122731,25.927948 4.785252,27.826721 6.762603,29.456030 
	C8.632658,30.743483 10.446965,30.542345 12.573360,30.536484 
	C14.332943,30.541777 15.751989,30.605545 17.457642,29.959007 
	C18.056650,29.803118 18.300798,29.750973 18.920174,29.657120 
	C20.830488,29.584843 22.349491,29.677498 24.181871,30.287914 
	C28.391382,30.964041 31.269739,33.131783 33.565666,36.096279 
	C36.131573,39.409374 36.055878,43.860237 33.548065,46.636414 
	C30.885464,49.583950 26.060261,50.405769 22.619249,48.470238 
	C20.704885,47.393425 19.113878,45.908501 17.942417,44.078522 
	C15.866755,40.836056 13.477419,41.221119 10.857891,43.255795 
	C8.612381,44.999962 6.699198,47.041744 5.192544,49.474461 
	C4.348219,50.837742 3.747567,52.584469 1.309708,52.217758 
z"/>
<path fill="#35368D" opacity="1.000000" stroke="none" 
	d="
M166.079590,37.196747 
	C170.870987,30.353809 180.591476,30.381227 184.554504,36.007782 
	C187.577087,40.299149 185.830521,45.135979 180.227402,47.840809 
	C179.464844,48.208920 177.972366,47.931828 178.600784,49.473457 
	C178.750595,49.840919 179.765823,49.855583 180.743408,50.081406 
	C184.089691,50.974766 187.150772,50.232998 190.533691,50.742653 
	C192.209702,50.392029 193.513184,49.858490 195.039215,49.233864 
	C187.961578,45.352985 187.057846,39.815609 192.051865,33.759808 
	C192.989517,32.622810 196.171066,32.419395 194.181717,29.762323 
	C192.485291,27.496449 189.770782,27.143766 187.549347,27.925270 
	C184.793427,28.894810 182.258835,28.447672 179.561172,28.430225 
	C176.943344,28.413294 175.364868,27.459362 174.815140,25.175615 
	C174.354706,23.262886 174.834793,21.370165 176.478500,19.887917 
	C178.463425,18.097958 179.934998,19.820702 181.304047,20.635565 
	C185.202621,22.955992 188.970551,20.772463 192.746735,20.461363 
	C193.914688,20.365143 195.492889,18.721914 194.760040,16.983202 
	C194.053360,15.306569 192.821365,13.788372 190.630066,13.997772 
	C186.613327,14.381610 182.584839,14.713525 178.596710,15.305799 
	C174.663803,15.889872 170.692673,16.083164 166.862839,15.301266 
	C162.124237,14.333834 160.478241,9.966598 162.503738,4.887795 
	C162.927994,3.823981 163.499985,2.819088 164.001953,1.393523 
	C164.444443,1.000000 164.888901,1.000000 165.666672,1.000000 
	C166.039627,3.881816 167.157410,5.829880 170.701294,6.081569 
	C173.448502,6.869740 175.872482,6.377231 178.597946,6.294428 
	C181.350906,6.080925 183.779114,6.029827 186.585571,6.000215 
	C189.668198,4.995021 192.468185,5.694451 195.630630,5.788105 
	C205.639023,8.754633 207.574310,13.959046 201.379013,20.968330 
	C199.091339,23.556580 203.198380,23.640560 202.766785,25.681000 
	C202.125778,28.103884 202.610901,30.260605 202.760452,32.689140 
	C203.877869,33.783562 204.793289,34.581223 205.865204,35.643356 
	C206.236862,36.201160 206.484497,36.463905 207.015778,36.800045 
	C207.531464,37.391487 207.795959,37.878922 208.023804,38.662109 
	C208.166611,39.172337 208.346085,39.386806 208.673218,39.993874 
	C208.664017,42.042217 208.399246,43.689674 208.197357,45.702057 
	C207.187149,54.520607 198.957748,59.252865 189.245941,59.809685 
	C187.208862,59.118855 185.392075,59.701820 183.318573,59.235531 
	C175.143524,60.234898 168.009018,54.971004 164.992523,45.387920 
	C164.159088,43.625946 164.608704,42.129021 164.773590,40.292919 
	C164.990097,39.906742 164.998718,40.004810 164.949707,40.009312 
	C165.808319,39.342350 165.308182,38.203735 166.079590,37.196747 
z"/>
<path fill="#35368E" opacity="1.000000" stroke="none" 
	d="
M43.238655,43.594414 
	C43.300743,44.495773 43.563187,44.998714 43.943504,45.743851 
	C41.918701,48.671852 41.737976,52.576847 38.363190,54.848080 
	C37.262085,55.661568 36.189575,55.865124 35.242496,56.839706 
	C35.046875,57.078228 35.002529,57.021423 35.038002,57.027756 
	C34.901672,57.170780 34.729874,57.307476 34.292789,57.639320 
	C27.414831,60.121609 22.291985,57.223110 17.523054,53.092747 
	C16.240055,51.981537 15.033139,49.890656 13.136739,52.921902 
	C12.188388,54.448288 12.593676,55.901409 12.677814,57.598206 
	C13.728926,59.417709 15.037546,60.552597 16.561853,61.444653 
	C16.006781,63.554123 13.728476,62.566692 12.338430,63.801941 
	C9.833581,62.893723 7.457649,64.129631 4.862277,63.152954 
	C4.462959,62.995758 4.324919,63.070206 4.279432,63.006329 
	C3.146855,62.285225 2.208814,61.461739 1.222923,60.221481 
	C1.000000,57.629444 1.000000,55.258884 1.000000,52.444164 
	C4.225741,49.826420 4.693406,45.431355 8.129992,43.313747 
	C9.488474,42.476658 10.691487,41.302959 12.105043,40.417519 
	C15.288169,38.423622 17.074640,38.725956 18.926435,42.484180 
	C21.484205,47.675182 25.821205,49.660900 30.419374,47.252293 
	C34.534164,45.096897 35.549362,40.466396 32.356869,37.040985 
	C30.228529,34.757370 28.259058,32.139359 24.331520,31.902308 
	C22.896986,30.082085 21.198929,30.522327 19.320292,30.720493 
	C19.020254,30.891016 18.554768,31.009710 18.314640,31.004288 
	C16.745453,31.908152 15.242280,31.327579 13.389349,31.495401 
	C10.911791,31.468418 8.870274,31.556597 6.448569,31.220781 
	C4.692252,30.131462 3.198158,29.324261 3.044961,27.448643 
	C2.842352,24.968042 2.822804,22.326956 5.032791,20.763702 
	C7.604042,18.944904 8.275506,22.862907 10.680449,23.041634 
	C12.406670,23.853182 13.880193,23.388390 15.590275,23.320259 
	C22.315470,20.825670 26.318081,15.388686 30.644310,10.669750 
	C37.311146,3.397745 42.297390,5.303498 45.779850,12.731161 
	C45.791763,17.587318 42.383743,16.301046 39.483593,16.640556 
	C38.407539,18.093092 37.127354,18.575989 35.429344,18.973511 
	C33.994900,19.712433 32.926384,20.467342 31.305994,20.770992 
	C27.229305,23.552992 28.938765,24.856850 32.141644,25.967838 
	C37.632751,27.872553 41.416920,31.490696 43.023628,37.571045 
	C43.916996,39.639774 43.356178,41.443352 43.238655,43.594414 
z"/>
<path fill="#34368C" opacity="1.000000" stroke="none" 
	d="
M110.587189,10.752043 
	C111.704453,10.970012 112.451874,10.996414 113.572800,10.998709 
	C114.130951,10.851936 114.315582,10.729273 114.777206,10.790570 
	C115.221573,11.006387 115.388962,11.038240 115.804695,11.130449 
	C117.860565,11.855683 119.583862,10.661619 121.712051,10.917233 
	C124.703529,10.814959 124.531921,8.312589 125.426537,6.810334 
	C126.470596,5.057148 126.990707,2.947283 129.616257,2.169331 
	C131.983978,0.950709 134.205490,1.793291 136.659973,1.226841 
	C137.444443,1.000000 137.888901,1.000000 138.666672,1.000000 
	C139.788208,4.599457 144.711716,5.146699 145.000305,9.474157 
	C145.989990,11.550089 145.241486,13.443727 145.703796,15.593336 
	C144.669495,18.278660 142.986481,19.684599 140.149582,19.397303 
	C136.840881,19.062227 138.727539,16.254259 137.815613,14.822570 
	C136.575058,12.874962 136.136368,9.288589 132.925720,10.297731 
	C130.141220,11.172935 129.668701,14.186361 130.150726,16.998367 
	C131.379990,24.169729 129.294235,28.107712 122.351685,30.907864 
	C120.264198,30.093536 118.447502,30.641188 116.367844,30.679577 
	C110.846764,30.407764 112.006401,26.826006 112.357986,23.166405 
	C114.938026,24.311707 117.155754,24.474171 119.722755,23.133736 
	C121.514481,22.198133 124.133041,21.635242 123.529076,19.627773 
	C122.880867,17.473244 120.245857,16.863756 117.687820,17.142498 
	C114.642883,17.474298 111.742577,19.240149 108.268097,18.073799 
	C105.192162,18.966183 102.322624,18.348360 99.061829,18.196720 
	C96.204468,17.483940 95.117973,15.842440 94.841393,13.517032 
	C94.519951,10.814424 93.146080,7.084125 98.437035,9.906279 
	C98.956779,10.183508 99.730553,9.984513 100.760132,10.060251 
	C104.128075,10.946374 107.197021,10.258905 110.587189,10.752043 
z"/>
<path fill="#33348E" opacity="1.000000" stroke="none" 
	d="
M126.449509,73.253677 
	C125.910515,73.064194 125.737968,73.061768 125.306732,73.069008 
	C124.429443,73.048729 123.877220,73.217583 123.216408,73.857605 
	C122.903900,74.527168 122.780403,74.966362 122.828453,75.702774 
	C120.629440,76.000000 118.258888,76.000000 115.444168,76.000000 
	C115.571426,72.039963 112.981209,66.884048 119.519920,65.028000 
	C122.256424,63.929348 124.768906,64.800232 127.570663,64.302475 
	C129.123474,64.011276 130.187347,64.296120 131.327225,64.637901 
	C138.345840,66.742332 138.610596,66.547554 140.089127,59.465870 
	C140.869110,55.729988 146.165543,53.281189 150.316971,55.082619 
	C152.172943,55.887978 154.390335,56.582264 155.665924,58.941437 
	C156.477005,59.465801 156.478638,60.040573 156.759735,60.785332 
	C156.909317,61.013672 156.970886,61.505920 156.994232,61.752861 
	C157.151657,62.195267 157.285751,62.390724 157.341446,62.932617 
	C157.664001,67.172127 154.643188,69.104156 152.307236,71.833885 
	C152.092575,72.116058 152.018951,72.108055 152.053802,72.097435 
	C151.562195,72.372917 151.014847,72.622772 150.274994,73.141678 
	C149.819382,73.327415 149.620346,73.355362 149.179047,73.203949 
	C148.936752,73.024574 148.482849,73.005684 148.255920,73.015770 
	C147.782440,73.148659 147.535858,73.271454 146.888702,73.294617 
	C141.016434,72.729561 135.540955,72.912117 129.664749,73.192268 
	C128.459488,73.519417 127.639053,73.501259 126.449509,73.253677 
z"/>
<path fill="#DDDDF1" opacity="1.000000" stroke="none" 
	d="
M1.000000,60.375000 
	C2.007457,60.808521 3.617685,60.768967 4.193659,62.591850 
	C3.313332,63.039223 2.373968,63.218048 1.336118,62.678513 
	C1.000000,62.250000 1.000000,61.500000 1.000000,60.375000 
z"/>
<path fill="#BCC1EA" opacity="1.000000" stroke="none" 
	d="
M405.751465,34.316933 
	C406.519379,34.224480 407.007690,34.424583 407.747986,34.312340 
	C408.000000,35.388889 408.000000,36.777779 408.000000,38.583336 
	C407.756348,39.112144 407.512726,39.224289 406.898376,39.176277 
	C405.231415,37.773491 404.761444,36.332893 405.751465,34.316933 
z"/>
<path fill="#BDBFE8" opacity="1.000000" stroke="none" 
	d="
M408.000000,46.583336 
	C407.567078,46.992947 407.134186,46.985893 406.378479,46.935318 
	C404.602203,45.464962 405.085968,44.003124 406.258118,42.248367 
	C406.785492,41.860184 407.031708,41.757561 407.638977,41.827469 
	C408.000000,43.388889 408.000000,44.777779 408.000000,46.583336 
z"/>
<path fill="#9495E0" opacity="1.000000" stroke="none" 
	d="
M136.562500,1.000000 
	C135.183990,2.819712 132.793533,1.374976 130.360260,2.062851 
	C129.933746,1.859035 129.930786,1.686234 129.963928,1.256716 
	C132.041672,1.000000 134.083328,1.000000 136.562500,1.000000 
z"/>
<path fill="#989BD0" opacity="1.000000" stroke="none" 
	d="
M408.000000,41.625000 
	C408.000000,42.000000 407.618042,42.103714 407.421021,42.085289 
	C406.375427,41.404484 406.305481,40.546268 406.918304,39.262508 
	C407.234100,38.929253 407.624298,38.886292 407.812134,38.943146 
	C408.000000,39.750000 408.000000,40.500000 408.000000,41.625000 
z"/>
<path fill="#35368D" opacity="1.000000" stroke="none" 
	d="
M65.136627,19.132431 
	C68.103722,14.354009 72.617828,11.125587 77.090118,8.148347 
	C81.761673,5.038462 85.922127,7.016964 88.033585,12.406370 
	C88.389114,13.313850 88.590584,14.281691 88.830315,15.588465 
	C87.219566,17.066719 85.411583,16.202761 83.409225,16.707668 
	C78.765053,18.712179 74.362862,20.400496 71.143227,24.436775 
	C73.662170,29.023289 78.756165,30.168303 82.304840,33.701897 
	C84.354172,34.761341 84.847168,36.418854 85.045944,38.550064 
	C85.915314,40.276035 85.356003,41.813625 85.217842,43.677746 
	C85.274178,44.835773 85.554901,45.601379 85.990479,46.642952 
	C86.099747,47.869686 86.392128,48.617126 87.694183,48.945446 
	C90.525810,49.035885 91.911995,47.035423 94.049164,45.751465 
	C96.785080,45.268120 98.597946,46.930946 100.920349,47.869934 
	C101.142853,49.724461 101.921928,50.732105 102.873131,48.939236 
	C105.186913,44.578087 109.165039,41.936386 112.413490,38.528339 
	C114.805153,36.019188 115.689034,37.171444 116.672897,39.090034 
	C118.468895,42.592335 121.420807,44.801758 124.888962,47.035793 
	C126.792923,47.787544 128.431503,47.404831 130.378296,47.374428 
	C135.942444,42.893394 136.232346,38.910461 131.524521,34.026123 
	C130.247742,32.701462 127.690498,32.053375 130.043579,29.559690 
	C131.998047,27.488426 133.327179,24.685835 137.220352,26.516592 
	C141.543930,28.549746 142.221939,32.679241 143.878082,36.673134 
	C143.082199,39.104485 143.727051,41.264797 143.224274,43.699860 
	C143.318893,50.019016 139.561020,54.598030 131.292191,57.853241 
	C128.837402,57.148495 126.696129,57.603004 124.267090,57.730961 
	C120.064003,56.138023 116.644447,53.740883 113.996063,50.116615 
	C110.341179,54.641140 112.799309,58.090912 115.676895,61.409019 
	C107.762848,65.307915 105.546051,64.884048 100.976784,58.377419 
	C99.969894,56.492912 100.827209,54.743279 100.107491,53.062592 
	C96.653053,58.408375 90.700058,60.010845 86.622612,57.157364 
	C81.676285,53.695835 78.988327,56.504333 75.421196,57.978138 
	C71.883842,59.439648 68.563393,58.764961 65.666672,56.690384 
	C63.455650,55.106884 62.070217,55.260044 59.593990,56.562214 
	C54.427521,59.279083 50.524010,60.628605 44.976707,53.810165 
	C43.877625,51.340153 44.712021,49.069496 44.762596,46.432556 
	C45.671978,39.926842 50.366123,38.342472 55.574909,36.950478 
	C57.321529,36.123734 58.823708,36.622749 60.653725,36.779564 
	C64.423820,37.291458 66.214195,38.973320 66.177177,42.535191 
	C66.164551,43.750183 66.688713,44.970753 66.997925,46.587296 
	C67.099594,47.896240 67.558731,48.525196 68.709137,48.919701 
	C70.846092,49.193226 72.567230,48.816475 74.596458,47.982780 
	C75.473427,48.171169 75.870766,48.191673 75.934326,47.224152 
	C76.309258,45.549446 76.697777,44.140263 77.147186,42.362091 
	C77.561295,41.532440 77.738968,41.037533 77.349869,40.234161 
	C73.655296,34.119148 68.780685,30.778915 61.300423,31.849533 
	C60.296593,31.147234 59.459602,31.213146 58.262444,31.477058 
	C56.388763,31.497265 54.843685,31.495802 52.977898,31.485891 
	C51.814701,31.435413 51.432529,30.322124 50.239048,30.729652 
	C47.455517,30.807016 46.075542,29.481821 46.010338,26.934229 
	C45.951233,24.624935 45.912594,22.088037 48.025093,20.688200 
	C50.588562,18.989536 51.173080,23.135658 53.741379,23.021137 
	C55.483582,23.875324 56.971867,23.389002 58.687233,23.277275 
	C61.498928,22.869490 61.753891,19.415106 64.682182,19.137499 
	C65.004303,19.011972 65.308769,19.328724 65.308769,19.328724 
	C65.308769,19.328724 65.261269,19.260593 65.136627,19.132431 
z"/>
<path fill="#35368D" opacity="1.000000" stroke="none" 
	d="
M407.118347,38.586624 
	C407.178223,39.716084 407.122314,40.502911 407.145203,41.678307 
	C406.879486,43.443039 406.534943,44.819206 406.123047,46.543587 
	C406.951843,52.821190 402.318176,55.158245 398.666931,58.041557 
	C397.575287,58.903629 396.031250,59.192867 394.346313,59.810005 
	C392.225616,59.084019 390.332550,59.735889 388.186890,59.202248 
	C383.121063,58.795261 380.460693,56.137012 379.136353,51.419743 
	C378.080139,49.721428 378.643341,48.198257 378.774292,46.352219 
	C379.761383,41.385582 382.462280,38.235138 386.491547,36.237312 
	C390.067200,34.464386 393.114136,36.120323 395.515320,38.575459 
	C396.596436,39.680851 396.246796,41.821758 395.720184,43.394661 
	C395.011902,45.510250 393.481506,44.456310 392.040436,44.160549 
	C390.078430,43.757874 389.006531,45.248768 388.208496,46.726959 
	C387.822784,47.441483 387.940887,48.401867 388.901611,48.818150 
	C390.345856,49.443916 391.625763,50.639946 393.413818,49.165176 
	C395.322296,47.591076 397.355255,46.233871 398.071472,43.285957 
	C398.850922,41.246452 398.383362,39.497536 398.339386,37.479111 
	C393.571777,29.347321 389.496155,27.868202 383.119568,31.948864 
	C382.224365,33.458080 382.652100,34.921146 382.198547,36.604424 
	C376.982697,39.922379 375.157227,39.456818 372.570770,34.384060 
	C371.206451,31.708241 369.113464,30.510757 366.157837,31.123320 
	C364.046844,31.560835 363.950989,33.259888 363.985352,34.997856 
	C364.014313,36.462620 364.895233,37.509239 366.108429,36.803558 
	C371.784210,33.502121 369.525543,38.438766 369.854156,40.413551 
	C370.000580,41.293369 369.407684,42.296215 369.084229,43.632156 
	C368.051117,45.068291 366.486725,45.580326 365.912781,47.677738 
	C367.967102,47.196880 367.801544,45.436378 368.770752,44.242134 
	C373.049194,45.436275 376.493744,48.372360 376.616486,52.413662 
	C376.746185,56.682552 372.448730,58.427525 368.352661,59.795013 
	C365.880310,59.067337 363.652557,59.754333 361.144409,59.200401 
	C357.628448,58.866730 356.110718,56.328754 354.013275,54.130035 
	C353.721039,53.666870 353.555878,53.529266 353.147491,53.179901 
	C352.904297,52.968140 352.998016,52.990883 352.986877,53.037807 
	C352.080688,51.307625 352.642639,49.421684 352.795776,47.177650 
	C353.557251,45.786953 353.844177,44.461514 354.661133,43.877243 
	C357.911652,41.552635 356.878174,39.687042 354.172882,37.519035 
	C352.962219,34.780338 353.704010,32.218731 353.793152,29.297394 
	C358.222900,20.844805 365.002289,18.968306 372.449707,24.083887 
	C375.923584,26.470083 378.758667,27.872557 382.053406,23.734776 
	C383.132202,22.379925 385.571564,22.108440 387.735046,21.252892 
	C389.809662,21.862425 391.633698,21.300646 393.715424,21.779810 
	C399.797028,23.877338 404.780304,26.593016 406.046753,33.641769 
	C406.354889,35.430916 406.678711,36.837452 407.118347,38.586624 
z"/>
<path fill="#33358F" opacity="1.000000" stroke="none" 
	d="
M345.828735,24.764540 
	C346.649780,25.465666 347.205109,25.953150 347.888611,26.688719 
	C348.663116,27.738647 348.864868,28.804699 349.802368,29.777147 
	C350.025574,29.988140 350.001648,30.003111 350.006897,29.990507 
	C350.427216,30.425980 350.481506,31.020750 350.855835,31.777582 
	C351.053741,31.989302 351.005310,32.007275 351.015045,31.983360 
	C351.137390,32.121277 351.250000,32.283104 351.420197,32.734344 
	C351.489685,33.413673 351.492828,33.803661 351.462036,34.481155 
	C351.280121,35.314556 351.093750,35.856495 351.290833,36.708038 
	C351.504974,37.520733 351.478668,38.090904 351.787567,38.869804 
	C346.045471,47.522194 344.128845,48.205257 333.985413,45.604851 
	C333.735291,45.540726 333.324188,46.104530 332.932678,46.702393 
	C332.127563,48.409389 332.693420,49.924641 332.203430,51.642868 
	C331.888641,56.604874 328.854126,58.302048 324.462891,58.993599 
	C322.436646,59.968761 320.644257,59.341713 318.546326,59.173813 
	C318.427307,57.170971 318.674103,55.417618 319.009613,53.281235 
	C319.922211,49.958908 319.346161,46.960781 319.354431,43.636566 
	C319.064789,42.996925 318.889404,42.715221 318.722595,42.428513 
	C316.981995,39.436722 315.124603,36.189800 311.630676,35.427422 
	C309.405396,34.941868 304.214203,42.539974 304.038818,46.189854 
	C303.874939,49.600056 303.332611,53.113621 305.660156,56.276089 
	C306.140045,56.928112 308.157867,58.734005 305.283417,59.855698 
	C303.177094,59.107716 301.302246,59.727871 299.175720,59.195015 
	C292.155579,57.582813 289.152374,51.108929 291.719971,44.481293 
	C293.448425,40.019665 296.646057,36.871170 299.996399,33.316807 
	C300.147614,33.010666 300.559937,32.737034 300.559937,32.737034 
	C300.559937,32.737034 300.343140,32.292385 300.106323,32.222195 
	C299.869507,32.152004 299.873657,32.054790 299.922241,32.052246 
	C299.688110,31.743317 299.343018,31.538790 298.656250,31.313372 
	C297.556274,30.988438 296.735840,30.995766 295.609497,31.191515 
	C295.106262,31.333225 294.904724,31.390614 294.388428,31.462364 
	C293.865448,31.447372 293.657196,31.418016 293.192444,31.204971 
	C292.935974,31.021282 292.490387,30.981077 292.267517,30.961945 
	C290.512634,29.484798 288.310516,28.732861 287.290710,26.292147 
	C287.118927,25.565147 287.099060,25.121136 287.096069,24.344000 
	C287.306732,23.757570 287.500244,23.504023 287.826660,23.051563 
	C287.959869,22.852896 288.009552,22.449080 288.019470,22.245890 
	C288.529602,21.479830 289.063416,20.949911 289.824707,20.249495 
	C290.039307,20.066296 290.530823,20.041458 290.776459,20.026707 
	C291.187408,19.888115 291.352753,19.764273 291.788605,19.791557 
	C292.059113,19.942688 292.022247,20.003067 292.026184,19.968006 
	C292.227966,20.216141 292.461945,20.465475 292.951416,20.816418 
	C293.170837,20.951862 293.577393,21.014742 293.780243,21.048878 
	C294.231598,21.296669 294.488220,21.500088 294.961914,21.822346 
	C295.170898,21.951426 295.567261,21.985914 295.766174,21.986774 
	C296.143921,21.871065 296.322754,21.754492 296.776917,21.801533 
	C297.052185,21.965149 297.008392,22.002659 297.012512,21.974129 
	C297.220917,22.213358 297.452301,22.455172 297.912781,22.821556 
	C298.521118,22.984470 298.927582,22.996832 299.638611,22.991501 
	C300.128113,22.851410 300.313019,22.729008 300.774353,22.791559 
	C301.050842,22.976511 301.502167,23.005123 301.727844,22.991558 
	C302.135651,22.854197 302.317780,22.730402 302.773010,22.792404 
	C303.213135,22.977304 303.380188,22.976414 303.797546,22.964790 
	C304.313049,22.859251 304.578186,22.764446 305.256042,22.759857 
	C312.151733,23.106028 318.634979,23.077194 325.532471,22.757027 
	C326.788422,22.464354 327.674988,22.559906 328.925293,22.158520 
	C334.075897,21.827969 338.777313,21.757917 343.669678,23.769091 
	C344.059814,23.979240 344.534637,24.065563 344.771973,24.109264 
	C345.193878,24.285606 345.378448,24.418251 345.828735,24.764540 
z"/>
<path fill="#35378E" opacity="1.000000" stroke="none" 
	d="
M234.518723,50.326492 
	C238.030914,47.136272 242.314774,45.412392 243.393188,40.038074 
	C244.174500,36.144474 243.054398,33.279697 241.541763,30.290907 
	C240.602509,28.435064 237.433701,26.981197 240.149216,24.716785 
	C242.455841,22.793344 245.236649,20.999056 248.697067,22.849455 
	C252.495712,24.880718 253.562546,28.322975 254.001495,32.578941 
	C255.225311,34.630104 254.875473,37.003471 256.631775,38.860413 
	C256.942688,40.362633 256.802216,41.382259 255.365265,42.056328 
	C254.113937,42.062824 253.512833,42.196186 253.116638,43.219570 
	C247.451859,57.852180 235.030319,60.632294 221.825607,56.289669 
	C215.377075,54.168949 210.571121,50.171051 210.020569,42.318962 
	C208.473801,40.295788 209.719925,38.407856 209.802216,36.261040 
	C212.398529,30.615332 214.118317,24.765686 221.605804,23.989929 
	C223.658432,23.061140 225.458435,23.650335 227.589462,23.783655 
	C231.018402,24.542404 232.503021,26.871336 233.990692,29.567516 
	C234.995514,31.605011 234.239304,33.468800 234.690155,35.585251 
	C234.908310,38.542164 233.294281,40.227009 231.601791,41.853725 
	C229.349762,44.018246 226.711609,44.443863 223.828110,43.414043 
	C220.552963,42.244354 220.887039,39.469891 220.980621,36.401703 
	C221.551086,35.441566 222.135498,34.909397 222.962204,34.522049 
	C222.252716,34.704895 221.875320,35.170177 221.233612,35.798965 
	C221.018021,36.031078 220.600327,36.079018 220.395660,36.031082 
	C220.015366,36.113579 219.839737,36.244015 219.478241,36.645607 
	C218.890198,37.979263 219.022583,39.082241 219.101868,40.498352 
	C219.253326,41.014999 219.348389,41.210228 219.641815,41.663811 
	C221.266953,45.613934 223.076981,48.946041 227.726013,50.042747 
	C230.087112,50.892479 232.160812,50.363861 234.518723,50.326492 
z"/>
<path fill="#34368F" opacity="1.000000" stroke="none" 
	d="
M254.987915,42.400677 
	C255.815567,41.390270 255.984283,40.488255 255.929367,39.148682 
	C255.358841,38.117477 255.281631,37.375965 255.891586,36.311638 
	C260.546051,31.803215 265.322510,27.969696 269.310364,23.033600 
	C271.411957,22.044632 273.312897,22.655640 275.575684,22.762867 
	C277.098999,23.321667 278.199219,23.679268 279.650085,24.087658 
	C280.188477,24.275944 280.376251,24.413441 280.844421,24.758976 
	C281.124756,24.967010 281.543762,25.009886 281.754333,25.011524 
	C282.218872,25.269041 282.493896,25.499796 283.044495,25.795135 
	C283.566864,25.980759 283.779785,26.147058 284.013000,26.574879 
	C285.702667,28.433720 286.764313,30.441120 287.940308,32.737892 
	C294.664185,41.917229 286.183289,58.483257 274.311279,59.006310 
	C271.556610,59.927723 269.047577,59.358387 266.166931,59.194504 
	C258.187256,57.636040 254.899246,53.870579 255.180145,46.355896 
	C255.243439,45.945450 255.420288,45.484970 255.312988,45.262901 
	C255.142441,44.286755 255.079208,43.532681 254.987915,42.400677 
z"/>
<path fill="#35368D" opacity="1.000000" stroke="none" 
	d="
M94.826889,45.321259 
	C94.417656,44.802025 94.404686,44.371609 94.667603,43.760117 
	C94.137138,42.370430 94.634529,40.998158 94.286011,39.353413 
	C93.737839,35.396149 90.116211,33.693863 88.980682,30.119991 
	C88.107285,29.357813 87.268242,29.574429 86.225906,29.260674 
	C85.958900,29.120844 85.918144,29.103678 85.906647,29.084793 
	C85.600975,28.615423 85.491905,28.123842 85.803688,27.283005 
	C88.237434,23.002003 91.056694,20.689665 95.926254,23.654448 
	C95.535286,25.873535 96.986420,26.419304 98.515884,27.247990 
	C99.006592,27.463644 99.208939,27.537409 99.660370,27.816889 
	C99.909462,28.022604 99.962952,28.429228 100.001007,28.630730 
	C100.217010,29.118172 100.410675,29.393042 100.783401,29.849276 
	C100.946739,30.041718 100.993332,30.523109 100.995148,30.764923 
	C101.460716,32.698719 100.473793,34.665836 102.121567,36.461624 
	C102.409531,37.182087 102.485657,37.612835 102.465546,38.380051 
	C102.201256,39.521454 101.945091,40.338158 102.217430,41.516144 
	C102.338791,42.029720 102.376717,42.237690 102.224487,42.699409 
	C102.030533,43.123028 102.026733,43.292889 102.038361,43.717140 
	C101.885056,44.188335 101.716324,44.405140 101.202072,44.846939 
	C99.026237,45.975574 97.118408,45.588009 94.826889,45.321259 
z"/>
<path fill="#35368E" opacity="1.000000" stroke="none" 
	d="
M82.502220,33.435482 
	C80.391090,33.840561 77.065414,36.275810 77.196617,31.127871 
	C77.218887,30.253979 75.648331,29.962812 74.643250,30.041491 
	C71.271194,30.305462 70.741989,28.330740 71.072426,25.203663 
	C71.526123,24.865879 71.952164,24.961765 72.705399,25.092594 
	C73.212280,25.270573 73.391968,25.413609 73.855072,25.752502 
	C78.019173,27.017250 81.180511,28.914572 82.502220,33.435482 
z"/>
<path fill="#3A3A83" opacity="1.000000" stroke="none" 
	d="
M288.164001,32.604225 
	C285.070221,32.481560 285.019287,29.671059 284.099548,27.140430 
	C285.014771,26.316223 286.127899,28.416451 287.044922,26.282753 
	C289.041229,27.091047 291.240173,27.840782 291.986053,30.613358 
	C290.956818,32.062416 288.439484,28.993448 288.164001,32.604225 
z"/>
<path fill="#3A3A83" opacity="1.000000" stroke="none" 
	d="
M325.734192,22.799452 
	C319.277466,24.987015 312.458344,23.874342 305.327850,23.384247 
	C308.282898,21.763725 311.746918,22.906349 315.499329,22.290802 
	C317.657074,22.104654 319.417755,22.082912 321.617737,22.090019 
	C323.118500,22.820229 324.339417,22.337891 325.734192,22.799452 
z"/>
<path fill="#35368E" opacity="1.000000" stroke="none" 
	d="
M94.384613,45.324959 
	C96.225967,44.252411 98.141319,43.834164 100.593506,44.005936 
	C101.920769,45.009579 101.550858,46.182655 101.272095,47.719307 
	C101.097595,48.118320 101.095833,48.132362 101.107941,48.141373 
	C98.695763,48.610317 96.137070,49.466026 94.684494,45.851135 
	C94.349449,45.623821 94.338615,45.417469 94.384613,45.324959 
z"/>
<path fill="#383785" opacity="1.000000" stroke="none" 
	d="
M129.282761,73.130760 
	C134.737106,71.227570 140.543533,72.001060 146.672913,72.632004 
	C145.411835,74.157181 143.525299,73.161377 141.460205,73.693420 
	C139.589508,73.924362 138.060150,73.123428 136.215637,73.893806 
	C133.822189,73.058533 131.657211,73.763969 129.282761,73.130760 
z"/>
<path fill="#3D3E82" opacity="1.000000" stroke="none" 
	d="
M152.435577,72.094070 
	C151.922562,68.426788 156.636581,67.207954 156.676697,63.242527 
	C157.976028,63.966423 157.263107,65.293526 157.762390,66.734360 
	C156.566528,69.057686 155.013153,70.915825 152.435577,72.094070 
z"/>
<path fill="#3A3A83" opacity="1.000000" stroke="none" 
	d="
M343.913635,23.709541 
	C339.275391,23.897532 334.587006,22.464573 329.295776,22.938786 
	C328.824493,22.615498 328.818787,22.316677 329.201477,21.794031 
	C333.172729,21.455437 336.755798,21.480740 340.715912,21.798763 
	C341.984436,22.507483 342.875916,22.973663 343.913635,23.709541 
z"/>
<path fill="#35368E" opacity="1.000000" stroke="none" 
	d="
M99.198975,27.728861 
	C97.304878,28.097023 95.731133,27.648060 94.467438,26.603086 
	C92.576767,25.039663 93.374725,24.241222 95.766937,23.980858 
	C96.994377,24.760887 97.871773,25.558931 98.896271,26.617054 
	C99.166428,27.070972 99.289474,27.264816 99.198975,27.728861 
z"/>
<path fill="#DDDDFF" opacity="1.000000" stroke="none" 
	d="
M340.912933,21.636421 
	C337.385468,22.052969 333.678009,22.064627 329.513306,22.112682 
	C328.862518,22.264479 328.668976,22.379873 328.258545,22.236013 
	C332.168182,19.958340 336.494141,21.337000 340.912933,21.636421 
z"/>
<path fill="#3F3F83" opacity="1.000000" stroke="none" 
	d="
M102.500076,36.720043 
	C99.716682,35.807869 99.650169,33.884537 100.853355,31.334488 
	C102.567993,32.452793 101.909164,34.672310 102.500076,36.720043 
z"/>
<path fill="#CCD1F0" opacity="1.000000" stroke="none" 
	d="
M315.447693,22.068174 
	C312.693817,23.935244 309.206268,22.529385 305.438599,23.079149 
	C304.990906,23.144543 304.527618,23.009481 304.287781,22.981768 
	C307.536957,20.768078 311.372498,22.601080 315.447693,22.068174 
z"/>
<path fill="#E8E8FD" opacity="1.000000" stroke="none" 
	d="
M256.097198,35.708420 
	C256.099823,36.729050 256.014862,37.413563 255.920593,38.444931 
	C251.611450,38.569370 255.132843,35.272907 253.977966,33.396118 
	C255.109528,33.401405 256.002319,34.016064 256.097198,35.708420 
z"/>
<path fill="#AFB2D8" opacity="1.000000" stroke="none" 
	d="
M39.548225,16.802879 
	C40.660400,14.714544 45.077179,18.110573 45.555779,13.285236 
	C46.879677,18.961723 42.657051,16.710396 39.548225,16.802879 
z"/>
<path fill="#D9DAFA" opacity="1.000000" stroke="none" 
	d="
M319.177002,43.710426 
	C320.677368,46.253483 320.099640,49.329948 319.401917,52.647583 
	C319.104828,49.978767 319.111328,47.059330 319.177002,43.710426 
z"/>
<path fill="#E4ECFF" opacity="1.000000" stroke="none" 
	d="
M110.792358,10.555059 
	C107.829704,10.895205 104.702377,10.846802 101.354446,10.456169 
	C104.298462,10.131464 107.463066,10.148987 110.792358,10.555059 
z"/>
<path fill="#33317D" opacity="1.000000" stroke="none" 
	d="
M121.819580,10.609838 
	C120.435654,12.563508 118.526985,12.082568 116.337280,11.407898 
	C117.885559,10.821918 119.543022,9.320630 121.819580,10.609838 
z"/>
<path fill="#35368E" opacity="1.000000" stroke="none" 
	d="
M75.703392,47.052544 
	C76.248283,47.502338 76.739929,48.010864 76.865768,48.597820 
	C77.065773,49.530621 77.214508,51.077168 76.268867,51.180668 
	C74.492111,51.375149 75.256065,49.614338 74.983047,48.286964 
	C75.041534,47.594597 75.212097,47.336380 75.703392,47.052544 
z"/>
<path fill="#C7C8EF" opacity="1.000000" stroke="none" 
	d="
M128.636871,72.928963 
	C131.142029,72.976501 133.288895,73.099030 135.655609,73.546547 
	C132.731033,73.853264 129.586624,73.834991 126.262650,73.441666 
	C126.814903,73.045731 127.546730,73.024841 128.636871,72.928963 
z"/>
<path fill="#35368E" opacity="1.000000" stroke="none" 
	d="
M87.908661,48.676956 
	C87.779152,49.922264 87.524155,51.088665 86.161926,50.296730 
	C84.997993,49.620075 84.828682,48.504150 85.889778,47.130592 
	C86.696198,47.417862 87.247063,47.916805 87.908661,48.676956 
z"/>
<path fill="#E2E8FB" opacity="1.000000" stroke="none" 
	d="
M190.731339,50.547459 
	C187.787888,50.888439 184.669540,50.851311 181.327515,50.472237 
	C184.254700,50.143307 187.405579,50.156330 190.731339,50.547459 
z"/>
<path fill="#D9DBFB" opacity="1.000000" stroke="none" 
	d="
M195.883392,5.619659 
	C193.316025,6.031060 190.593033,6.050217 187.416916,6.045537 
	C189.723923,3.978321 192.789139,5.301153 195.883392,5.619659 
z"/>
<path fill="#7F7EBA" opacity="1.000000" stroke="none" 
	d="
M98.883682,18.340767 
	C101.448120,17.992498 104.258125,18.009830 107.527931,18.022039 
	C105.152733,19.760664 102.111473,18.854275 98.883682,18.340767 
z"/>
<path fill="#7D80AD" opacity="1.000000" stroke="none" 
	d="
M4.722613,63.262733 
	C6.805335,63.080376 9.147710,63.164989 11.751642,63.575310 
	C9.682756,63.527267 7.238307,65.312279 4.722613,63.262733 
z"/>
<path fill="#9F9DC6" opacity="1.000000" stroke="none" 
	d="
M127.522911,64.084564 
	C125.722748,65.829018 123.136238,64.552811 120.326584,65.015457 
	C122.051186,62.930916 124.710709,64.479515 127.522911,64.084564 
z"/>
<path fill="#C7C9E9" opacity="1.000000" stroke="none" 
	d="
M51.703308,30.718529 
	C54.033352,30.892155 56.067013,30.953773 58.536781,31.036001 
	C59.095291,31.191071 59.217690,31.325531 59.161171,31.665848 
	C56.412842,31.833511 53.843433,31.795319 51.088852,31.374386 
	C51.071426,30.863270 51.239174,30.734894 51.703308,30.718529 
z"/>
<path fill="#8887B6" opacity="1.000000" stroke="none" 
	d="
M44.721405,45.997215 
	C45.003670,48.172142 45.041641,50.346794 45.049747,52.997246 
	C41.835468,51.664005 45.011314,48.908878 44.042320,46.379589 
	C44.061375,45.986046 43.995003,45.989651 43.993549,46.022774 
	C43.992096,46.055893 44.477112,45.996941 44.721405,45.997215 
z"/>
<path fill="#E6E6FB" opacity="1.000000" stroke="none" 
	d="
M265.961884,59.334976 
	C268.202179,58.961903 270.642456,58.966724 273.536499,59.009087 
	C271.528259,61.001038 268.794403,59.761932 265.961884,59.334976 
z"/>
<path fill="#9697CC" opacity="1.000000" stroke="none" 
	d="
M353.634613,29.049572 
	C354.070496,31.353729 354.113159,33.826088 354.095398,36.762642 
	C351.864899,34.745975 353.612488,31.876902 353.634613,29.049572 
z"/>
<path fill="#B0B0D8" opacity="1.000000" stroke="none" 
	d="
M178.490784,6.070016 
	C176.602295,7.727079 174.113266,6.970190 171.364471,6.408684 
	C173.401749,6.112185 175.730316,6.060098 178.490784,6.070016 
z"/>
<path fill="#C8CCED" opacity="1.000000" stroke="none" 
	d="
M6.204298,31.398262 
	C8.100192,31.013081 10.134140,31.018112 12.595992,31.430174 
	C10.796715,31.820961 8.569534,31.804718 6.204298,31.398262 
z"/>
<path fill="#9193C0" opacity="1.000000" stroke="none" 
	d="
M143.390732,43.877361 
	C143.093750,41.874863 143.178131,39.712608 143.562714,37.295029 
	C143.832642,39.265675 143.802368,41.491638 143.390732,43.877361 
z"/>
<path fill="#E6EDFF" opacity="1.000000" stroke="none" 
	d="
M209.706055,35.986549 
	C210.030167,37.603050 210.012115,39.333694 210.017853,41.494545 
	C209.874649,41.956078 209.707657,41.987411 209.288757,42.057510 
	C208.445206,41.724983 208.537720,41.092075 208.296112,40.274643 
	C208.106079,39.843502 208.058777,39.670063 207.999329,39.227245 
	C209.855057,38.684410 208.451416,36.834530 209.706055,35.986549 
z"/>
<path fill="#35368E" opacity="1.000000" stroke="none" 
	d="
M68.900391,48.699432 
	C67.032326,50.217541 66.317322,49.543900 66.810905,47.175797 
	C67.613159,47.469170 68.198090,47.952518 68.900391,48.699432 
z"/>
<path fill="#7473B3" opacity="1.000000" stroke="none" 
	d="
M202.983887,32.551292 
	C201.225616,30.984615 202.224609,28.703606 202.577942,26.260212 
	C202.905029,28.041225 202.955185,30.078953 202.983887,32.551292 
z"/>
<path fill="#7374A5" opacity="1.000000" stroke="none" 
	d="
M141.516312,73.903122 
	C142.618469,72.428658 144.521774,73.285812 146.614807,72.921494 
	C147.175934,72.906494 147.345612,72.936844 147.772141,72.996521 
	C146.258057,75.051727 143.942642,73.527382 141.516312,73.903122 
z"/>
<path fill="#C7CAEB" opacity="1.000000" stroke="none" 
	d="
M234.418106,50.128365 
	C232.846771,51.644379 230.697662,51.102299 228.320190,50.417076 
	C230.054092,50.113850 232.027206,50.089226 234.418106,50.128365 
z"/>
<path fill="#676A9D" opacity="1.000000" stroke="none" 
	d="
M327.614288,22.001074 
	C328.214600,21.982780 328.387482,21.988804 328.808197,22.071955 
	C329.056061,22.149082 328.950256,22.534163 328.890198,22.724239 
	C328.124634,22.932894 327.419098,22.951469 326.359436,22.995636 
	C324.842285,22.897192 323.679230,22.773153 322.286621,22.383991 
	C323.766998,22.087708 325.476929,22.056549 327.614288,22.001074 
z"/>
<path fill="#8A8CB8" opacity="1.000000" stroke="none" 
	d="
M124.392365,57.971741 
	C125.959579,56.128117 128.247192,57.358757 130.670227,57.565380 
	C128.894714,57.902344 126.861153,57.969383 124.392365,57.971741 
z"/>
<path fill="#D2D5F2" opacity="1.000000" stroke="none" 
	d="
M360.997131,59.356743 
	C363.041992,59.051739 365.290619,59.117943 367.772522,59.524105 
	C365.737488,59.818691 363.469208,59.773323 360.997131,59.356743 
z"/>
<path fill="#9C9DC9" opacity="1.000000" stroke="none" 
	d="
M350.769714,35.298904 
	C350.987274,34.573650 350.998413,34.151730 351.021851,33.413055 
	C351.173431,32.938019 351.312714,32.779747 351.670532,32.850143 
	C351.943298,34.800617 351.997589,36.522415 351.989990,38.677418 
	C351.124603,38.936886 350.977661,38.329117 350.926117,37.309689 
	C350.612549,36.562923 350.509369,36.101604 350.769714,35.298904 
z"/>
<path fill="#C1BFF0" opacity="1.000000" stroke="none" 
	d="
M102.097542,37.420567 
	C102.153877,37.101826 102.499664,37.069164 102.672974,37.073036 
	C102.824799,38.944813 102.803314,40.812721 102.408081,42.816895 
	C102.034332,42.953163 101.989426,42.459343 101.928253,42.219082 
	C101.444443,41.273090 101.506744,40.498981 101.706421,39.374031 
	C101.922546,38.593399 101.981880,38.166355 102.097542,37.420567 
z"/>
<path fill="#DADDF3" opacity="1.000000" stroke="none" 
	d="
M388.027588,59.361633 
	C389.763306,59.051167 391.673248,59.115726 393.790680,59.527870 
	C392.066040,59.829189 390.133942,59.782925 388.027588,59.361633 
z"/>
<path fill="#797BB0" opacity="1.000000" stroke="none" 
	d="
M398.139099,37.580887 
	C399.429871,38.837967 399.172333,40.613476 398.392029,42.669388 
	C398.127563,41.279545 398.095154,39.631989 398.139099,37.580887 
z"/>
<path fill="#8E93B8" opacity="1.000000" stroke="none" 
	d="
M43.397881,43.836945 
	C43.017498,42.266621 42.996700,40.540409 42.999916,38.382729 
	C45.044579,39.633808 43.627857,41.756413 43.397881,43.836945 
z"/>
<path fill="#D8DAF8" opacity="1.000000" stroke="none" 
	d="
M318.206360,59.331406 
	C319.867401,58.940857 321.554260,58.957390 323.666534,58.978493 
	C322.370209,61.030750 320.216003,59.723682 318.206360,59.331406 
z"/>
<path fill="#BAC0D8" opacity="1.000000" stroke="none" 
	d="
M299.024963,59.348648 
	C300.722076,59.058289 302.596039,59.140030 304.705444,59.538319 
	C303.027893,59.810162 301.114838,59.765453 299.024963,59.348648 
z"/>
<path fill="#9CA0C8" opacity="1.000000" stroke="none" 
	d="
M183.150330,59.399185 
	C184.807861,59.111229 186.620438,59.191406 188.677338,59.563763 
	C187.049561,59.826405 185.177444,59.796860 183.150330,59.399185 
z"/>
<path fill="#D8DCF6" opacity="1.000000" stroke="none" 
	d="
M99.889778,53.372925 
	C100.725494,51.882812 101.005844,52.541275 101.034241,53.471233 
	C101.072372,54.719360 100.998001,55.970928 100.981537,57.618492 
	C99.039009,56.988159 100.464500,55.147163 99.889778,53.372925 
z"/>
<path fill="#D7D9EF" opacity="1.000000" stroke="none" 
	d="
M352.660767,46.961067 
	C353.118774,48.591755 353.210846,50.411739 353.139343,52.658226 
	C351.001862,51.307068 352.131805,49.173237 352.660767,46.961067 
z"/>
<path fill="#C5CAF9" opacity="1.000000" stroke="none" 
	d="
M208.099686,40.443691 
	C208.423065,40.516338 208.692749,41.015739 208.999664,41.805710 
	C208.922379,43.345123 208.807907,44.593971 208.324890,45.943214 
	C207.986221,44.319225 208.016113,42.594833 208.099686,40.443691 
z"/>
<path fill="#AAA8E1" opacity="1.000000" stroke="none" 
	d="
M130.326370,47.186539 
	C129.109131,48.324348 127.421104,48.241890 125.451714,47.426594 
	C126.785988,47.169899 128.363327,47.135277 130.326370,47.186539 
z"/>
<path fill="#3F3F83" opacity="1.000000" stroke="none" 
	d="
M101.401436,47.990372 
	C101.064529,47.021667 101.031464,45.925018 101.001572,44.418205 
	C101.179596,44.001923 101.354446,43.995804 101.791534,43.980606 
	C104.035393,45.456394 101.878242,46.570545 101.401436,47.990372 
z"/>
<path fill="#999DC2" opacity="1.000000" stroke="none" 
	d="
M275.846802,22.596912 
	C274.189362,22.975296 272.379974,22.986526 270.110596,23.018736 
	C271.439941,21.087711 273.643921,22.229622 275.846802,22.596912 
z"/>
<path fill="#9393CA" opacity="1.000000" stroke="none" 
	d="
M393.891174,21.614031 
	C392.223541,21.902271 390.411011,21.812803 388.339905,21.443802 
	C389.969635,21.188288 391.857941,21.212305 393.891174,21.614031 
z"/>
<path fill="#9191C9" opacity="1.000000" stroke="none" 
	d="
M227.846924,23.630590 
	C226.265259,24.003733 224.553787,24.005400 222.414093,24.003628 
	C223.660446,21.929127 225.788849,23.367887 227.846924,23.630590 
z"/>
<path fill="#B8B9E3" opacity="1.000000" stroke="none" 
	d="
M83.476166,16.911247 
	C84.515335,15.361090 86.374687,16.208075 88.421097,15.972114 
	C87.509087,18.023613 85.523666,16.648495 83.476166,16.911247 
z"/>
<path fill="#35368E" opacity="1.000000" stroke="none" 
	d="
M51.988827,30.510214 
	C51.819771,30.876020 51.639847,30.921507 51.181801,30.979317 
	C50.903683,30.991644 50.444965,31.043591 50.222786,30.980976 
	C50.199745,30.046949 49.641117,28.733189 51.142212,28.643024 
	C51.388931,28.628206 51.697807,29.648169 51.988827,30.510214 
z"/>
<path fill="#555298" opacity="1.000000" stroke="none" 
	d="
M19.386049,30.934769 
	C20.680578,29.740156 22.299946,29.326136 23.881138,31.482513 
	C22.562420,31.531927 21.157133,31.255222 19.386049,30.934769 
z"/>
<path fill="#7071A8" opacity="1.000000" stroke="none" 
	d="
M116.480553,30.889839 
	C117.785233,29.514673 119.676849,30.070154 121.766068,30.611597 
	C120.293564,30.915400 118.596764,30.936600 116.480553,30.889839 
z"/>
<path fill="#6E6CA9" opacity="1.000000" stroke="none" 
	d="
M234.901306,35.536770 
	C233.440872,34.382698 234.324005,32.450489 233.999573,30.315865 
	C235.921036,31.362413 234.546432,33.409851 234.901306,35.536770 
z"/>
<path fill="#9290B6" opacity="1.000000" stroke="none" 
	d="
M145.904846,15.536500 
	C144.501938,14.367480 145.365524,12.391842 144.970840,10.235535 
	C147.099899,11.276301 145.397675,13.397427 145.904846,15.536500 
z"/>
<path fill="#8F94BD" opacity="1.000000" stroke="none" 
	d="
M293.889862,31.233833 
	C294.152832,31.054790 294.596191,30.989454 294.813477,30.934761 
	C296.044067,30.307287 297.140961,30.547720 298.585632,30.717709 
	C299.244141,31.097092 299.530701,31.311762 299.894043,31.788069 
	C298.288147,32.023762 296.605469,31.997820 294.505829,31.911148 
	C293.934845,31.704571 293.780853,31.558723 293.889862,31.233833 
z"/>
<path fill="#A5ABD6" opacity="1.000000" stroke="none" 
	d="
M219.894226,41.499210 
	C219.840164,41.922165 219.495239,41.953007 219.322495,41.964859 
	C217.891541,40.366142 218.733856,38.519989 218.787613,36.394402 
	C219.204422,35.980621 219.401321,35.959381 219.894592,35.960640 
	C220.110077,37.680851 220.029190,39.378551 219.894226,41.499210 
z"/>
<path fill="#3A3C7A" opacity="1.000000" stroke="none" 
	d="
M35.372414,57.041283 
	C35.121635,55.616158 35.966034,55.014370 37.709465,55.016247 
	C37.615509,56.080868 36.921696,56.858372 35.372414,57.041283 
z"/>
<path fill="#8B8AC1" opacity="1.000000" stroke="none" 
	d="
M15.470894,23.110222 
	C14.518876,24.440477 13.006168,24.121101 11.251450,23.377699 
	C12.375554,23.096544 13.724127,23.068789 15.470894,23.110222 
z"/>
<path fill="#8C8BC9" opacity="1.000000" stroke="none" 
	d="
M12.897772,57.477707 
	C11.462055,56.556042 11.907362,55.063919 12.617007,53.317635 
	C12.881817,54.405914 12.930020,55.743736 12.897772,57.477707 
z"/>
<path fill="#CDD1F7" opacity="1.000000" stroke="none" 
	d="
M58.551003,23.064095 
	C57.648140,24.757599 56.017548,23.975218 54.273689,23.409031 
	C55.443283,23.079092 56.794582,23.048355 58.551003,23.064095 
z"/>
<path fill="#9599C0" opacity="1.000000" stroke="none" 
	d="
M158.008957,66.641190 
	C156.256088,66.310272 157.503677,64.793282 156.993469,63.349197 
	C156.906967,62.976547 156.976898,62.489861 156.997223,62.244835 
	C158.880966,63.043610 157.453232,64.890945 158.008957,66.641190 
z"/>
<path fill="#9B9BD3" opacity="1.000000" stroke="none" 
	d="
M332.346680,51.814941 
	C332.063782,50.429123 332.153412,48.927471 332.560120,47.227562 
	C332.824554,48.585911 332.771881,50.142506 332.346680,51.814941 
z"/>
<path fill="#E7E9F6" opacity="1.000000" stroke="none" 
	d="
M31.408356,20.956429 
	C31.873947,19.788473 33.134155,19.278448 34.742882,18.888783 
	C34.497288,20.522186 33.478577,21.316227 31.408356,20.956429 
z"/>
<path fill="#F9F9FF" opacity="1.000000" stroke="none" 
	d="
M60.911797,36.634720 
	C59.626675,37.016964 58.215145,37.034451 56.380474,37.023018 
	C57.317135,35.088902 59.130974,36.210880 60.911797,36.634720 
z"/>
<path fill="#E6E7FC" opacity="1.000000" stroke="none" 
	d="
M378.628540,46.097664 
	C379.021088,47.382282 379.053253,48.804890 379.056122,50.654732 
	C377.072113,49.732952 378.238892,47.895260 378.628540,46.097664 
z"/>
<path fill="#3A3A83" opacity="1.000000" stroke="none" 
	d="
M350.013855,29.652348 
	C348.589386,29.865032 348.016266,29.003523 348.019501,27.291687 
	C349.016357,27.448219 350.065796,27.918068 350.013855,29.652348 
z"/>
<path fill="#B7B4E7" opacity="1.000000" stroke="none" 
	d="
M382.359863,36.818855 
	C382.094025,35.465351 382.220795,34.051872 382.565979,32.357887 
	C382.773804,33.637878 382.763123,35.198380 382.359863,36.818855 
z"/>
<path fill="#EEF0FD" opacity="1.000000" stroke="none" 
	d="
M85.361099,43.937599 
	C84.972359,42.631985 84.951263,41.193802 84.961868,39.322617 
	C86.838539,40.288799 85.824203,42.115627 85.361099,43.937599 
z"/>
<path fill="#676A9D" opacity="1.000000" stroke="none" 
	d="
M94.062531,39.354912 
	C95.251495,40.058636 94.948509,41.450520 94.960159,43.172821 
	C91.731842,42.990345 94.716454,40.906796 94.062531,39.354912 
z"/>
<path fill="#F9F9FF" opacity="1.000000" stroke="none" 
	d="
M164.633209,40.054733 
	C164.998474,41.321980 165.006851,42.737217 164.988953,44.578911 
	C163.164841,43.628735 164.144531,41.855137 164.633209,40.054733 
z"/>
<path fill="#E9E9FC" opacity="1.000000" stroke="none" 
	d="
M13.422812,31.905632 
	C13.023895,31.837206 13.020153,31.496702 13.025474,31.326542 
	C14.431552,31.079588 15.832311,31.002792 17.653790,30.962433 
	C17.044453,33.013962 15.224180,31.582956 13.422812,31.905632 
z"/>
<path fill="#35368E" opacity="1.000000" stroke="none" 
	d="
M59.316170,31.921913 
	C58.982250,31.871702 59.013065,31.463749 58.992977,31.260178 
	C59.764469,30.114000 60.417595,30.136868 60.949162,31.605404 
	C60.547291,31.909040 60.098686,31.940582 59.316170,31.921913 
z"/>
<path fill="#383785" opacity="1.000000" stroke="none" 
	d="
M123.327583,74.048798 
	C123.203278,73.178780 123.168121,72.027725 124.863129,72.863106 
	C124.574631,73.389000 124.101204,73.699318 123.327583,74.048798 
z"/>
<path fill="#35368E" opacity="1.000000" stroke="none" 
	d="
M77.134003,40.335552 
	C78.437538,40.327557 79.323143,40.751652 77.467842,41.937778 
	C77.163712,41.550537 77.119339,41.107979 77.134003,40.335552 
z"/>
<path fill="#3A3A83" opacity="1.000000" stroke="none" 
	d="
M289.664581,19.991850 
	C289.893738,20.925552 289.556427,21.639301 288.333832,21.977451 
	C287.805634,20.952381 287.755524,19.965036 289.664581,19.991850 
z"/>
<path fill="#3D3E82" opacity="1.000000" stroke="none" 
	d="
M149.757278,73.239639 
	C150.442932,72.689766 150.955490,72.387085 151.778351,72.085617 
	C151.590988,72.692085 151.093323,73.297363 150.294037,73.917007 
	C149.856339,73.783203 149.720261,73.635025 149.757278,73.239639 
z"/>
<path fill="#C9CAE5" opacity="1.000000" stroke="none" 
	d="
M165.971405,36.994240 
	C166.134720,37.948345 165.883148,38.888496 165.266144,39.921234 
	C165.194000,39.018787 164.431244,37.795441 165.971405,36.994240 
z"/>
<path fill="#E3E3F4" opacity="1.000000" stroke="none" 
	d="
M86.073441,29.441780 
	C86.840935,27.457932 87.527580,29.068634 88.570206,29.522102 
	C87.956993,29.776699 87.072495,29.769707 86.073441,29.441780 
z"/>
<path fill="#3A3A83" opacity="1.000000" stroke="none" 
	d="
M351.018921,31.684555 
	C350.723358,31.518402 350.392975,31.047506 350.037354,30.277258 
	C350.336151,30.445206 350.660095,30.912508 351.018921,31.684555 
z"/>
<path fill="#E3E3F4" opacity="1.000000" stroke="none" 
	d="
M85.721924,27.042074 
	C86.232430,27.512774 86.425247,28.050747 86.256607,28.827316 
	C84.714783,28.668821 84.826424,27.947567 85.721924,27.042074 
z"/>
<path fill="#3A3A83" opacity="1.000000" stroke="none" 
	d="
M299.927734,32.370323 
	C300.291656,32.223007 300.713806,32.294010 301.135956,32.365013 
	C300.954315,32.557549 300.772644,32.750080 300.369324,32.976639 
	C300.147614,33.010666 299.985962,32.588646 299.927734,32.370323 
z"/>
<path fill="#3D3E82" opacity="1.000000" stroke="none" 
	d="
M156.970551,60.696419 
	C156.619003,60.564640 156.328690,60.115612 156.001617,59.393463 
	C156.799927,59.133606 156.998169,59.686619 156.970551,60.696419 
z"/>
<path fill="#3A3A83" opacity="1.000000" stroke="none" 
	d="
M291.952911,19.766544 
	C291.886536,19.957800 291.713928,19.972914 291.281708,19.999990 
	C291.183960,19.650362 291.276642,19.153488 291.952911,19.766544 
z"/>
<path fill="#33317D" opacity="1.000000" stroke="none" 
	d="
M114.960358,10.774992 
	C114.869568,10.977768 114.684959,10.981003 114.223335,10.979420 
	C114.146889,10.596802 114.288277,10.082540 114.960358,10.774992 
z"/>
<path fill="#3A3A83" opacity="1.000000" stroke="none" 
	d="
M293.072876,20.692390 
	C292.875061,20.767689 292.579285,20.583511 292.156799,20.166142 
	C292.345032,20.099606 292.659943,20.266260 293.072876,20.692390 
z"/>
<path fill="#3A3A83" opacity="1.000000" stroke="none" 
	d="
M295.067383,21.693668 
	C294.876984,21.795738 294.583038,21.640047 294.136108,21.283688 
	C294.310028,21.200647 294.636932,21.318277 295.067383,21.693668 
z"/>
<path fill="#3A3A83" opacity="1.000000" stroke="none" 
	d="
M296.954010,21.773148 
	C296.871094,21.972033 296.690002,21.978914 296.237000,21.986717 
	C296.158264,21.624844 296.277893,21.100861 296.954010,21.773148 
z"/>
<path fill="#383785" opacity="1.000000" stroke="none" 
	d="
M149.681900,72.998466 
	C149.930374,72.992439 149.975388,73.461273 149.983917,73.696335 
	C149.705505,73.783981 149.418564,73.636566 149.034195,73.256866 
	C148.936752,73.024574 149.433426,73.004494 149.681900,72.998466 
z"/>
<path fill="#3A3A83" opacity="1.000000" stroke="none" 
	d="
M298.010315,22.727043 
	C297.831421,22.781813 297.548187,22.591522 297.140808,22.173416 
	C297.313080,22.124393 297.609528,22.303188 298.010315,22.727043 
z"/>
<path fill="#3A3A83" opacity="1.000000" stroke="none" 
	d="
M300.957764,22.775372 
	C300.866241,22.978476 300.681671,22.980440 300.220123,22.978107 
	C300.148651,22.606068 300.279449,22.066072 300.957764,22.775372 
z"/>
<path fill="#3A3A83" opacity="1.000000" stroke="none" 
	d="
M302.954071,22.778538 
	C302.864044,22.980310 302.681976,22.982424 302.226685,22.981264 
	C302.153625,22.611078 302.278595,22.073174 302.954071,22.778538 
z"/>
<path fill="#3A3C7A" opacity="1.000000" stroke="none" 
	d="
M34.270664,57.819389 
	C34.179020,57.566490 34.387398,57.354378 34.863056,57.116104 
	C35.002712,57.374992 34.816162,57.631737 34.270664,57.819389 
z"/>
<path fill="#D7D9EF" opacity="1.000000" stroke="none" 
	d="
M353.012604,53.174145 
	C353.218994,53.012836 353.463531,53.168064 353.762085,53.619148 
	C353.531799,53.842304 353.276703,53.700863 353.012604,53.174145 
z"/>
<path fill="#3A3A83" opacity="1.000000" stroke="none" 
	d="
M287.705688,22.951223 
	C287.892242,23.184206 287.739868,23.470383 287.307800,23.861149 
	C287.225769,23.690428 287.338654,23.369989 287.705688,22.951223 
z"/>
<path fill="#3A3A83" opacity="1.000000" stroke="none" 
	d="
M281.028107,24.720871 
	C280.803925,24.897131 280.526398,24.747126 280.146484,24.327721 
	C280.310974,24.250540 280.621216,24.362637 281.028107,24.720871 
z"/>
<path fill="#3A3A83" opacity="1.000000" stroke="none" 
	d="
M346.006104,24.734558 
	C345.784271,24.901564 345.516327,24.750195 345.149963,24.338522 
	C345.312134,24.265621 345.614929,24.378275 346.006104,24.734558 
z"/>
<path fill="#35368D" opacity="1.000000" stroke="none" 
	d="
M74.042999,25.705723 
	C73.820808,25.881077 73.546082,25.733732 73.173447,25.316933 
	C73.337570,25.239386 73.642548,25.351234 74.042999,25.705723 
z"/>
<path fill="#3A3A83" opacity="1.000000" stroke="none" 
	d="
M283.170746,25.612175 
	C282.969879,25.736319 282.640839,25.587742 282.138367,25.226166 
	C282.324158,25.121927 282.683350,25.230692 283.170746,25.612175 
z"/>
<path fill="#3F3F83" opacity="1.000000" stroke="none" 
	d="
M99.216423,28.005249 
	C98.990883,27.812342 98.996338,27.625624 99.022583,27.158020 
	C99.341164,27.073698 99.638954,27.270266 99.923096,27.744719 
	C99.909462,28.022604 99.447426,28.011436 99.216423,28.005249 
z"/>
<path fill="#35378E" opacity="1.000000" stroke="none" 
	d="
M255.168732,45.268921 
	C255.504044,45.217060 255.587585,45.453842 255.349869,45.848312 
	C255.243439,45.945450 255.131805,45.497013 255.168732,45.268921 
z"/>
<path fill="#3F3F83" opacity="1.000000" stroke="none" 
	d="
M100.949417,29.753866 
	C100.702560,29.801689 100.458389,29.561659 100.126640,29.076927 
	C100.343414,29.043489 100.647766,29.254749 100.949417,29.753866 
z"/>
<path fill="#3A3A83" opacity="1.000000" stroke="none" 
	d="
M293.848816,31.039280 
	C294.152832,31.054790 294.088135,31.450117 294.088501,31.650267 
	C293.779236,31.731915 293.469666,31.613413 293.048035,31.258097 
	C293.138916,31.022110 293.341858,31.022938 293.848816,31.039280 
z"/>
<path fill="#3A3A83" opacity="1.000000" stroke="none" 
	d="
M351.866150,32.819057 
	C351.889008,33.078815 351.460480,33.035412 351.247314,33.065853 
	C351.028015,32.906967 351.021881,32.717636 351.020264,32.243881 
	C351.297607,32.159401 351.570465,32.359352 351.866150,32.819057 
z"/>
<path fill="#37397C" opacity="1.000000" stroke="none" 
	d="
M207.112686,36.675331 
	C206.946152,36.731453 206.625351,36.558853 206.163116,36.147041 
	C206.333923,36.087421 206.646164,36.267014 207.112686,36.675331 
z"/>
<path fill="#000000" opacity="1.000000" stroke="none" 
	d="
M179.625793,41.411064 
	C178.058609,42.352585 176.613678,43.166306 176.143280,40.750469 
	C175.922836,39.618267 176.432434,38.567799 177.447388,38.360580 
	C179.605713,37.919933 179.847321,39.476662 179.625793,41.411064 
z"/>
<path fill="#000000" opacity="1.000000" stroke="none" 
	d="
M197.259521,42.084854 
	C197.275009,40.575211 196.318298,38.996376 197.960129,38.329227 
	C198.800705,37.987656 199.529251,38.902943 199.778275,39.639183 
	C200.491989,41.749386 198.941589,42.107025 197.259521,42.084854 
z"/>
<path fill="#000000" opacity="1.000000" stroke="none" 
	d="
M149.578735,65.536568 
	C147.354584,65.345825 146.455368,64.274292 147.500473,62.377323 
	C147.922287,61.611668 148.661484,60.783691 149.833069,61.577660 
	C151.686951,62.833992 150.366684,64.065781 149.578735,65.536568 
z"/>
<path fill="#35368E" opacity="1.000000" stroke="none" 
	d="
M58.643543,48.234482 
	C60.023239,47.490993 61.249939,44.683216 62.082096,48.360394 
	C62.725136,51.201897 59.783100,55.627857 56.874004,55.774616 
	C56.163498,55.810463 55.518383,55.656609 55.338428,54.907001 
	C54.868546,52.949684 57.158241,52.833366 57.820908,51.204983 
	C57.430344,49.963264 57.801270,49.184151 58.643543,48.234482 
z"/>
<path fill="#000000" opacity="1.000000" stroke="none" 
	d="
M58.639671,47.886700 
	C59.073441,48.906132 58.915371,49.691975 58.114426,50.615921 
	C53.117577,51.447891 54.205406,48.479515 54.932701,45.450851 
	C55.904137,44.070145 56.750168,44.423428 57.786346,45.668846 
	C58.134945,46.573250 58.252422,47.158478 58.639671,47.886700 
z"/>
<path fill="#35368E" opacity="1.000000" stroke="none" 
	d="
M65.005829,19.001961 
	C66.418983,19.081474 67.825974,19.158678 69.487213,19.249836 
	C66.847794,21.905111 66.847794,21.905111 65.014236,19.359110 
	C65.004303,19.011972 64.999657,18.999655 65.005829,19.001961 
z"/>
<path fill="#D1D6FD" opacity="1.000000" stroke="none" 
	d="
M58.012962,45.632629 
	C57.217346,45.666676 56.417229,45.345325 55.285881,45.093849 
	C55.297569,44.016434 55.972343,43.079285 57.246189,43.306751 
	C58.197186,43.476562 57.919815,44.542782 58.012962,45.632629 
z"/>
<path fill="#35368E" opacity="1.000000" stroke="none" 
	d="
M80.955894,15.530972 
	C80.309875,15.174836 80.300468,14.817409 80.764427,14.502266 
	C80.861443,14.436371 81.085861,14.439324 81.180107,14.508255 
	C81.630852,14.837914 81.614349,15.195013 80.955894,15.530972 
z"/>
<path fill="#000000" opacity="1.000000" stroke="none" 
	d="
M368.984985,43.988426 
	C369.007721,44.139523 369.015442,44.312729 369.080933,44.460270 
	C370.490417,47.635117 368.741089,49.322578 366.104919,50.348392 
	C364.554260,50.951794 364.125244,49.640690 364.028198,48.436207 
	C363.778748,45.339790 364.568634,43.166359 368.693756,43.987885 
	C369.018158,44.021091 368.996887,43.998581 368.984985,43.988426 
z"/>
<path fill="#000000" opacity="1.000000" stroke="none" 
	d="
M335.130127,31.634750 
	C332.787872,34.340149 331.643463,37.125561 331.953766,40.783733 
	C327.506409,39.959888 327.361053,35.126427 324.033081,33.296272 
	C327.134644,29.272261 331.192474,30.537291 335.130127,31.634750 
z"/>
<path fill="#585AA0" opacity="1.000000" stroke="none" 
	d="
M335.416626,31.955917 
	C331.417297,30.128342 327.854095,32.034134 324.049744,32.685879 
	C322.668823,32.873714 321.341095,32.627365 321.450500,31.159414 
	C321.544891,29.893051 322.874573,30.068789 323.811981,30.056492 
	C327.417175,30.009199 331.023560,29.967449 334.628296,30.014694 
	C335.786499,30.029871 337.185669,30.182558 335.416626,31.955917 
z"/>
<path fill="#000000" opacity="1.000000" stroke="none" 
	d="
M340.071838,37.950768 
	C340.687683,35.196201 341.992889,35.839863 343.282898,36.911991 
	C344.020996,37.525425 344.063477,38.418514 343.331329,39.031513 
	C342.033386,40.118259 340.715057,40.651306 340.071838,37.950768 
z"/>
<path fill="#3A3A83" opacity="1.000000" stroke="none" 
	d="
M298.728638,30.665033 
	C297.909210,30.916286 296.860809,30.950159 295.421570,30.932051 
	C296.074982,29.836910 297.247620,29.823757 298.728638,30.665033 
z"/>
<path fill="#3A3A83" opacity="1.000000" stroke="none" 
	d="
M350.777557,35.148403 
	C351.005310,35.439983 351.034515,35.884403 350.980347,36.654587 
	C350.292542,36.515057 350.019012,35.987076 350.777557,35.148403 
z"/>
<path fill="#000000" opacity="1.000000" stroke="none" 
	d="
M221.009018,36.017570 
	C220.980301,33.546436 222.342697,32.301506 224.686951,32.168644 
	C225.697861,32.111351 226.665298,32.740616 226.404053,33.916031 
	C225.790543,36.676353 223.665756,36.041504 221.365112,35.881508 
	C220.974457,35.984081 221.000015,36.004066 221.009018,36.017570 
z"/>
<path fill="#2F337B" opacity="1.000000" stroke="none" 
	d="
M218.749023,36.264648 
	C219.030014,37.709766 219.052505,39.417667 219.112366,41.551140 
	C217.393005,40.346233 217.863129,38.446342 218.749023,36.264648 
z"/>
<path fill="#000000" opacity="1.000000" stroke="none" 
	d="
M277.272430,47.715584 
	C273.157715,50.426594 269.823395,50.342953 266.905304,46.009377 
	C265.955383,43.755383 265.736908,41.802452 266.615143,39.432510 
	C272.630798,32.391960 273.875275,32.321281 278.937164,38.700890 
	C279.651611,40.200684 280.338013,41.368095 279.601868,43.124878 
	C279.351135,45.086906 278.969757,46.569366 277.272430,47.715584 
z"/>
<path fill="#333584" opacity="1.000000" stroke="none" 
	d="
M279.876984,40.318432 
	C281.234924,40.104630 282.588898,39.886452 282.723175,41.429340 
	C282.831665,42.675507 281.770416,42.873322 280.436340,42.986401 
	C279.328400,42.333118 279.538208,41.464802 279.876984,40.318432 
z"/>
<path fill="#333584" opacity="1.000000" stroke="none" 
	d="
M277.106506,48.045280 
	C277.565460,46.683685 278.236969,45.564556 279.390320,44.065445 
	C279.610138,45.546303 280.663239,48.136730 277.106506,48.045280 
z"/>
<path fill="#CACCF3" opacity="1.000000" stroke="none" 
	d="
M266.669464,39.052216 
	C266.854370,41.000809 266.865021,42.933849 266.808044,45.270546 
	C266.605988,45.501923 266.463043,45.337017 266.172119,45.093018 
	C265.029785,43.319950 265.657837,41.492016 265.860229,39.375828 
	C266.145477,39.025967 266.495209,39.036663 266.669464,39.052216 
z"/>
<path fill="#323579" opacity="1.000000" stroke="none" 
	d="
M265.861633,39.262543 
	C266.104462,40.734341 266.063446,42.442711 266.027527,44.578815 
	C264.484344,43.286098 264.768036,41.414330 265.861633,39.262543 
z"/>
<path fill="#9393CF" opacity="1.000000" stroke="none" 
	d="
M279.896332,43.504726 
	C279.872192,43.685467 279.543274,43.778797 279.376862,43.817894 
	C279.141479,42.511986 279.072510,41.166985 279.054810,39.416607 
	C279.375793,39.195068 279.645538,39.378902 280.039917,39.784950 
	C280.125763,40.754757 280.087006,41.502350 280.066956,42.624405 
	C280.085693,42.998867 279.920471,43.323986 279.896332,43.504726 
z"/>
<path fill="#3F3F83" opacity="1.000000" stroke="none" 
	d="
M101.660309,39.224388 
	C101.907555,39.761822 101.951897,40.503197 101.931656,41.611694 
	C101.054260,41.237282 100.884224,40.392498 101.660309,39.224388 
z"/>
</svg>